<svg xmlns="http://www.w3.org/2000/svg" width="181" height="55" viewBox="0 0 181 55"><g fill="none" fill-rule="evenodd"><path fill="#000" fill-rule="nonzero" stroke="#898989" d="M179.687 47.974c0 3.155-2.515 5.713-5.626 5.713H6.319c-3.112 0-5.632-2.56-5.632-5.713V6.406c0-3.154 2.522-5.72 5.632-5.72h167.74c3.111 0 5.626 2.564 5.626 5.72l.002 41.568z"/><path fill="#FFF" d="M57.441 11.687l-.737-1.397a4.895 4.895 0 0 1 1.012-.517 4.056 4.056 0 0 1 1.551-.275c1.056 0 1.628.341 1.969.66.407.385.55.847.55 1.386 0 .396-.088.715-.319 1.056a1.676 1.676 0 0 1-.682.583v.033c.297.088.594.253.814.462.231.22.528.616.528 1.232 0 .737-.352 1.364-.913 1.749-.66.451-1.507.506-2.068.506-.616 0-1.188-.066-1.771-.319a4.542 4.542 0 0 1-1.21-.77l.968-1.386c.231.264.506.473.77.616.341.176.649.242.99.242.264 0 .594-.055.803-.187a.687.687 0 0 0 .341-.605c0-.231-.11-.407-.33-.55-.132-.088-.385-.176-.902-.176h-.715v-1.474h.473c.363 0 .88-.044 1.144-.308a.64.64 0 0 0 .187-.462.657.657 0 0 0-.286-.517c-.187-.132-.451-.187-.704-.187-.143 0-.473.011-.858.198a3.42 3.42 0 0 0-.605.407zM68.633 17l-.451-1.232H65.52L65.025 17h-2.013l2.816-7.337h2.079L70.668 17h-2.035zm-2.585-2.684h1.628l-.825-2.376-.803 2.376zm10.257-4.653v1.617h-2.387V17h-1.903V9.663h4.29zm4.735 4.906h-1.199V17h-1.903V9.663h3.036c.649 0 1.298.121 1.859.66.572.561.682 1.166.682 1.782 0 .583-.077 1.254-.649 1.826-.572.561-1.254.638-1.826.638zm-1.199-3.366v1.826h.638c.209 0 .572-.022.803-.231.231-.209.242-.495.242-.671 0-.209-.011-.451-.22-.66-.22-.231-.561-.264-.814-.264h-.649zm4.141-1.54h2.134l1.397 3.267 1.221-3.267h2.035L87.469 17h-2.013l1.023-2.057-2.497-5.28zm8.519 2.024l-.737-1.397a4.895 4.895 0 0 1 1.012-.517 4.056 4.056 0 0 1 1.551-.275c1.056 0 1.628.341 1.969.66.407.385.55.847.55 1.386 0 .396-.088.715-.319 1.056a1.676 1.676 0 0 1-.682.583v.033c.297.088.594.253.814.462.231.22.528.616.528 1.232 0 .737-.352 1.364-.913 1.749-.66.451-1.507.506-2.068.506-.616 0-1.188-.066-1.771-.319a4.542 4.542 0 0 1-1.21-.77l.968-1.386c.231.264.506.473.77.616.341.176.649.242.99.242.264 0 .594-.055.803-.187a.687.687 0 0 0 .341-.605c0-.231-.11-.407-.33-.55-.132-.088-.385-.176-.902-.176h-.715v-1.474h.473c.363 0 .88-.044 1.144-.308a.64.64 0 0 0 .187-.462.657.657 0 0 0-.286-.517c-.187-.132-.451-.187-.704-.187-.143 0-.473.011-.858.198a3.42 3.42 0 0 0-.605.407zm6.396-2.024h1.914v4.62l2.75-4.62h1.947V17h-1.914v-4.62l-2.75 4.62h-1.947V9.663zm12.985 1.617h-1.562V17h-1.903v-5.72h-1.562V9.663h5.027v1.617zm5.516-1.617v1.617h-2.266v1.221h2.145v1.617h-2.145v1.265h2.266V17h-4.169V9.663h4.169zM125.229 17h-3.058V9.663h2.838c.528 0 1.155.077 1.606.572.253.275.451.715.451 1.375 0 .319-.044.594-.209.902-.165.297-.319.451-.594.572.385.044.77.22 1.001.44.297.297.495.759.495 1.342 0 .704-.264 1.166-.539 1.441-.396.407-1.078.693-1.991.693zm-1.155-5.874v1.43h.352c.209 0 .517-.022.726-.231.121-.121.176-.319.176-.484a.7.7 0 0 0-.176-.495c-.121-.121-.341-.22-.726-.22h-.352zm0 2.849v1.54h.429c.528 0 .968-.044 1.177-.297a.714.714 0 0 0 .154-.473c0-.231-.066-.407-.187-.528-.231-.231-.704-.242-1.177-.242h-.396z"/><path d="M40.17 26.379c-.038-4.298 3.52-6.388 3.682-6.486-2.015-2.937-5.137-3.338-6.235-3.37-2.622-.276-5.166 1.569-6.502 1.569-1.363 0-3.42-1.543-5.638-1.497-2.853.044-5.522 1.696-6.986 4.261-3.022 5.23-.768 12.917 2.126 17.145 1.448 2.071 3.14 4.383 5.355 4.302 2.167-.09 2.976-1.382 5.59-1.382 2.591 0 3.351 1.382 5.61 1.33 2.325-.038 3.79-2.08 5.187-4.17 1.673-2.373 2.345-4.71 2.372-4.83-.055-.019-4.516-1.722-4.56-6.872zm-4.266-12.638c1.165-1.457 1.963-3.44 1.741-5.452-1.686.075-3.796 1.167-5.01 2.592-1.075 1.256-2.035 3.315-1.787 5.251 1.895.141 3.84-.956 5.056-2.39zM71.527 42.005h-3.028l-1.659-5.212h-5.765l-1.58 5.212h-2.948l5.712-17.744h3.528l5.74 17.744zm-5.187-7.398l-1.5-4.634c-.159-.473-.456-1.588-.895-3.342h-.053c-.175.754-.456 1.869-.843 3.342l-1.473 4.634h4.764zm19.876.843c0 2.177-.588 3.897-1.764 5.16-1.053 1.123-2.361 1.685-3.923 1.685-1.685 0-2.896-.606-3.633-1.816h-.053v6.74H74V33.423c0-1.368-.036-2.772-.105-4.212h2.5l.158 2.028h.054c.948-1.528 2.386-2.291 4.317-2.291 1.51 0 2.77.596 3.777 1.79 1.011 1.194 1.515 2.765 1.515 4.713zm-2.896.105c0-1.246-.28-2.272-.843-3.08-.614-.843-1.44-1.264-2.474-1.264-.702 0-1.339.234-1.908.697-.571.467-.944 1.076-1.119 1.83a3.73 3.73 0 0 0-.132.867v2.134c0 .93.285 1.716.856 2.357.57.641 1.312.961 2.224.961 1.07 0 1.904-.413 2.5-1.237.597-.825.896-1.913.896-3.265zm17.612-.105c0 2.177-.588 3.897-1.765 5.16-1.052 1.123-2.36 1.685-3.922 1.685-1.685 0-2.896-.606-3.632-1.816h-.053v6.74h-2.843V33.423c0-1.368-.036-2.772-.105-4.212h2.5l.159 2.028h.053c.947-1.528 2.385-2.291 4.317-2.291 1.508 0 2.768.596 3.779 1.79 1.007 1.194 1.512 2.765 1.512 4.713zm-2.896.105c0-1.246-.281-2.272-.844-3.08-.615-.843-1.437-1.264-2.473-1.264-.703 0-1.339.234-1.91.697-.57.467-.942 1.076-1.117 1.83-.087.353-.132.64-.132.867v2.134c0 .93.285 1.716.853 2.357.571.64 1.312.961 2.227.961 1.07 0 1.904-.413 2.5-1.237.597-.825.896-1.913.896-3.265zm19.349 1.475c0 1.509-.524 2.737-1.576 3.685-1.156 1.036-2.765 1.553-4.833 1.553-1.91 0-3.44-.368-4.599-1.105l.659-2.37a7.792 7.792 0 0 0 4.11 1.134c1.07 0 1.903-.243 2.502-.726.596-.482.893-1.13.893-1.938 0-.72-.245-1.327-.737-1.819-.49-.492-1.307-.95-2.448-1.372-3.107-1.159-4.659-2.856-4.659-5.088 0-1.459.544-2.655 1.634-3.585 1.085-.932 2.533-1.398 4.344-1.398 1.614 0 2.956.282 4.026.843l-.71 2.317c-1-.544-2.131-.816-3.396-.816-1 0-1.782.247-2.342.738-.473.438-.71.973-.71 1.606 0 .702.27 1.282.814 1.738.474.421 1.334.877 2.582 1.369 1.526.615 2.648 1.333 3.369 2.157.719.822 1.077 1.85 1.077 3.076zm9.399-5.686h-3.133v6.212c0 1.58.552 2.37 1.658 2.37.508 0 .93-.045 1.263-.133l.079 2.159c-.56.21-1.298.315-2.211.315-1.123 0-2-.343-2.633-1.027-.631-.685-.948-1.835-.948-3.45v-6.449h-1.867v-2.133h1.867v-2.343l2.792-.842v3.185h3.133v2.136zm14.137 4.159c0 1.966-.562 3.581-1.685 4.844-1.177 1.3-2.74 1.948-4.688 1.948-1.877 0-3.372-.623-4.487-1.868-1.114-1.246-1.672-2.818-1.672-4.712 0-1.983.574-3.607 1.724-4.87 1.148-1.264 2.698-1.896 4.646-1.896 1.877 0 3.388.623 4.528 1.87 1.09 1.209 1.634 2.77 1.634 4.684zm-2.949.092c0-1.18-.252-2.192-.763-3.036-.596-1.022-1.448-1.531-2.552-1.531-1.142 0-2.01.51-2.606 1.53-.511.846-.763 1.874-.763 3.09 0 1.18.252 2.192.763 3.035.614 1.021 1.473 1.53 2.581 1.53 1.085 0 1.937-.52 2.552-1.557.524-.86.788-1.883.788-3.061zm12.189-3.885a4.936 4.936 0 0 0-.896-.078c-1 0-1.773.377-2.317 1.133-.473.667-.71 1.51-.71 2.527v6.713h-2.842l.027-8.765c0-1.475-.036-2.817-.107-4.028h2.476l.104 2.448h.079c.3-.841.773-1.519 1.421-2.027.633-.457 1.317-.685 2.055-.685.262 0 .5.019.71.052v2.71zm12.714 3.293c0 .509-.034.938-.104 1.289h-8.528c.033 1.264.445 2.23 1.237 2.897.719.596 1.648.895 2.79.895 1.262 0 2.414-.201 3.45-.605l.445 1.973c-1.21.528-2.64.79-4.289.79-1.984 0-3.541-.583-4.675-1.75-1.13-1.167-1.697-2.733-1.697-4.699 0-1.929.527-3.536 1.581-4.817 1.104-1.368 2.596-2.052 4.474-2.052 1.844 0 3.24.684 4.188 2.052.75 1.087 1.128 2.43 1.128 4.027zm-2.711-.738c.019-.842-.167-1.57-.552-2.185-.492-.79-1.248-1.185-2.265-1.185-.93 0-1.686.385-2.263 1.158-.473.615-.755 1.352-.841 2.211h5.921v.001z" fill="#FFF" fill-rule="nonzero"/></g></svg>