<svg xmlns="http://www.w3.org/2000/svg" width="180" height="54" viewBox="0 0 180 54"><defs><linearGradient id="a" x1="91.488%" x2="-38.352%" y1="4.948%" y2="71.907%"><stop offset="0%" stop-color="#00A0FF"/><stop offset="1%" stop-color="#00A1FF"/><stop offset="26%" stop-color="#00BEFF"/><stop offset="51%" stop-color="#00D2FF"/><stop offset="76%" stop-color="#00DFFF"/><stop offset="100%" stop-color="#00E3FF"/></linearGradient><linearGradient id="b" x1="107.685%" x2="-130.64%" y1="50%" y2="50%"><stop offset="0%" stop-color="#FFE000"/><stop offset="41%" stop-color="#FFBD00"/><stop offset="78%" stop-color="orange"/><stop offset="100%" stop-color="#FF9C00"/></linearGradient><linearGradient id="c" x1="86.219%" x2="-50.15%" y1="17.877%" y2="194.703%"><stop offset="0%" stop-color="#FF3A44"/><stop offset="100%" stop-color="#C31162"/></linearGradient><linearGradient id="d" x1="-18.754%" x2="42.121%" y1="-54.052%" y2="24.917%"><stop offset="0%" stop-color="#32A071"/><stop offset="7%" stop-color="#2DA771"/><stop offset="48%" stop-color="#15CF74"/><stop offset="80%" stop-color="#06E775"/><stop offset="100%" stop-color="#00F076"/></linearGradient></defs><g fill="none" fill-rule="evenodd" transform="translate(1 1)"><rect width="179" height="53" x="-.5" y="-.5" fill="#000" fill-rule="nonzero" stroke="#898989" rx="5"/><path fill="#FFF" fill-rule="nonzero" d="M90.356 28.34a5.667 5.667 0 1 0 5.693 5.667 5.587 5.587 0 0 0-5.693-5.667zm0 9.107a3.44 3.44 0 1 1 3.2-3.44 3.28 3.28 0 0 1-3.2 3.44zM77.943 28.34a5.667 5.667 0 1 0 5.68 5.667 5.587 5.587 0 0 0-5.694-5.667h.014zm0 9.107a3.44 3.44 0 1 1 3.186-3.44 3.28 3.28 0 0 1-3.2 3.44h.014zm-14.787-7.36v2.4h5.76a5.027 5.027 0 0 1-1.333 3.026 5.893 5.893 0 0 1-4.44 1.76 6.4 6.4 0 1 1 0-12.8 6.133 6.133 0 0 1 4.36 1.72l1.693-1.693a8.387 8.387 0 0 0-6.04-2.493 8.813 8.813 0 1 0 0 17.613 8 8 0 0 0 6.147-2.467 8 8 0 0 0 2.08-5.626 7.827 7.827 0 0 0-.134-1.507l-8.093.067zm60.413 1.866a5.333 5.333 0 0 0-4.853-3.613 5.333 5.333 0 0 0-5.333 5.667 5.547 5.547 0 0 0 5.626 5.666 5.64 5.64 0 0 0 4.72-2.506l-1.933-1.334a3.24 3.24 0 0 1-2.787 1.574 2.88 2.88 0 0 1-2.746-1.72l7.586-3.134-.28-.6zm-7.733 1.894a3.107 3.107 0 0 1 2.96-3.307 2.2 2.2 0 0 1 2.107 1.2l-5.067 2.107zm-6.16 5.493h2.493V22.673h-2.493V39.34zm-4.08-9.733h-.093a4 4 0 0 0-2.987-1.334 5.68 5.68 0 0 0 0 11.347 3.867 3.867 0 0 0 2.987-1.333h.08v.813c0 2.173-1.16 3.333-3.027 3.333a3.133 3.133 0 0 1-2.853-2.013l-2.174.907a5.4 5.4 0 0 0 5.027 3.346c2.92 0 5.333-1.72 5.333-5.906V28.673h-2.293v.934zm-2.853 7.84a3.453 3.453 0 0 1 0-6.88 3.2 3.2 0 0 1 3.026 3.44 3.173 3.173 0 0 1-3.04 3.44h.014zm32.506-14.774h-5.96V39.34h2.494v-6.32h3.48a5.187 5.187 0 1 0 0-10.347h-.014zm0 8h-3.48v-5.68h3.534a2.86 2.86 0 0 1 0 5.72l-.054-.04zm15.374-2.4c-1.855-.11-3.6.89-4.44 2.547l2.213.92a2.36 2.36 0 0 1 2.267-1.227 2.4 2.4 0 0 1 2.666 2.147v.173a5.507 5.507 0 0 0-2.6-.64c-2.386 0-4.8 1.334-4.8 3.747a3.853 3.853 0 0 0 4.134 3.667 3.507 3.507 0 0 0 3.2-1.6h.08v1.333h2.4v-6.413c0-2.92-2.214-4.614-5.054-4.614l-.066-.04zm-.307 9.134c-.813 0-1.947-.414-1.947-1.414 0-1.333 1.414-1.773 2.667-1.773a4.427 4.427 0 0 1 2.267.56 3.013 3.013 0 0 1-2.92 2.667l-.067-.04zm14.173-8.734l-2.853 7.227h-.08l-2.96-7.227h-2.667l4.44 10.107-2.533 5.613h2.6l6.827-15.72h-2.774zM142.076 39.34h2.493V22.673h-2.493V39.34z"/><path fill="#FFF" d="M55.441 11.687l-.737-1.397a4.895 4.895 0 0 1 1.012-.517 4.056 4.056 0 0 1 1.551-.275c1.056 0 1.628.341 1.969.66.407.385.55.847.55 1.386 0 .396-.088.715-.319 1.056a1.676 1.676 0 0 1-.682.583v.033c.297.088.594.253.814.462.231.22.528.616.528 1.232 0 .737-.352 1.364-.913 1.749-.66.451-1.507.506-2.068.506-.616 0-1.188-.066-1.771-.319a4.542 4.542 0 0 1-1.21-.77l.968-1.386c.231.264.506.473.77.616.341.176.649.242.99.242.264 0 .594-.055.803-.187a.687.687 0 0 0 .341-.605c0-.231-.11-.407-.33-.55-.132-.088-.385-.176-.902-.176h-.715v-1.474h.473c.363 0 .88-.044 1.144-.308a.64.64 0 0 0 .187-.462.657.657 0 0 0-.286-.517c-.187-.132-.451-.187-.704-.187-.143 0-.473.011-.858.198a3.42 3.42 0 0 0-.605.407zM66.633 17l-.451-1.232H63.52L63.025 17h-2.013l2.816-7.337h2.079L68.668 17h-2.035zm-2.585-2.684h1.628l-.825-2.376-.803 2.376zm10.257-4.653v1.617h-2.387V17h-1.903V9.663h4.29zm4.735 4.906h-1.199V17h-1.903V9.663h3.036c.649 0 1.298.121 1.859.66.572.561.682 1.166.682 1.782 0 .583-.077 1.254-.649 1.826-.572.561-1.254.638-1.826.638zm-1.199-3.366v1.826h.638c.209 0 .572-.022.803-.231.231-.209.242-.495.242-.671 0-.209-.011-.451-.22-.66-.22-.231-.561-.264-.814-.264h-.649zm4.141-1.54h2.134l1.397 3.267 1.221-3.267h2.035L85.469 17h-2.013l1.023-2.057-2.497-5.28zm8.519 2.024l-.737-1.397a4.895 4.895 0 0 1 1.012-.517 4.056 4.056 0 0 1 1.551-.275c1.056 0 1.628.341 1.969.66.407.385.55.847.55 1.386 0 .396-.088.715-.319 1.056a1.676 1.676 0 0 1-.682.583v.033c.297.088.594.253.814.462.231.22.528.616.528 1.232 0 .737-.352 1.364-.913 1.749-.66.451-1.507.506-2.068.506-.616 0-1.188-.066-1.771-.319a4.542 4.542 0 0 1-1.21-.77l.968-1.386c.231.264.506.473.77.616.341.176.649.242.99.242.264 0 .594-.055.803-.187a.687.687 0 0 0 .341-.605c0-.231-.11-.407-.33-.55-.132-.088-.385-.176-.902-.176h-.715v-1.474h.473c.363 0 .88-.044 1.144-.308a.64.64 0 0 0 .187-.462.657.657 0 0 0-.286-.517c-.187-.132-.451-.187-.704-.187-.143 0-.473.011-.858.198a3.42 3.42 0 0 0-.605.407zm6.396-2.024h1.914v4.62l2.75-4.62h1.947V17h-1.914v-4.62L98.844 17h-1.947V9.663zm12.985 1.617h-1.562V17h-1.903v-5.72h-1.562V9.663h5.027v1.617zm5.516-1.617v1.617h-2.266v1.221h2.145v1.617h-2.145v1.265h2.266V17h-4.169V9.663h4.169zM123.229 17h-3.058V9.663h2.838c.528 0 1.155.077 1.606.572.253.275.451.715.451 1.375 0 .319-.044.594-.209.902-.165.297-.319.451-.594.572.385.044.77.22 1.001.44.297.297.495.759.495 1.342 0 .704-.264 1.166-.539 1.441-.396.407-1.078.693-1.991.693zm-1.155-5.874v1.43h.352c.209 0 .517-.022.726-.231.121-.121.176-.319.176-.484a.7.7 0 0 0-.176-.495c-.121-.121-.341-.22-.726-.22h-.352zm0 2.849v1.54h.429c.528 0 .968-.044 1.177-.297a.714.714 0 0 0 .154-.473c0-.231-.066-.407-.187-.528-.231-.231-.704-.242-1.177-.242h-.396z"/><g fill-rule="nonzero"><path fill="url(#a)" d="M.92.72a2.667 2.667 0 0 0-.613 1.867V32.08c-.04.678.178 1.345.613 1.867l.093.093 16.52-16.507v-.386L1.013.627.92.72z" transform="translate(13 9)"/><path fill="url(#b)" d="M23 23.04l-5.467-5.507v-.386L23 11.627l.12.066 6.547 3.72c1.866 1.054 1.866 2.787 0 3.854l-6.52 3.706-.147.067z" transform="translate(13 9)"/><path fill="url(#c)" d="M23.16 22.96l-5.627-5.627L.92 33.947c.785.69 1.95.723 2.773.08l19.48-11.067" transform="translate(13 9)"/><path fill="url(#d)" d="M23.16 11.707L3.68.64A2.173 2.173 0 0 0 .907.72l16.626 16.613 5.627-5.626z" transform="translate(13 9)"/></g></g></svg>